<?xml version="1.0" encoding="iso-8859-1"?>
<!-- Uploaded to: SVG Repo, www.svgrepo.com, Generator: SVG Repo Mixer Tools -->
<!DOCTYPE svg PUBLIC "-//W3C//DTD SVG 1.1//EN" "http://www.w3.org/Graphics/SVG/1.1/DTD/svg11.dtd">
<svg fill="#000000" version="1.1" id="Capa_1" xmlns="http://www.w3.org/2000/svg" xmlns:xlink="http://www.w3.org/1999/xlink" 
	 width="800px" height="800px" viewBox="0 0 568.263 568.263"
	 xml:space="preserve">
<g>
	<g>
		<path d="M280.565,120.155c0,23.189,18.848,42.037,41.998,42.037c23.198,0,42.046-18.848,42.046-42.037
			c0-23.16-18.848-41.998-42.046-41.998C299.413,78.167,280.565,96.995,280.565,120.155z"/>
		<path d="M374.764,340.867V190.306c0-19.708-19.736-18.848-19.736-18.848h-63.294h-16.772c0,0-3.309-0.498-10.194,5.164
			l-46.617,27.205l-46.626-46.703l0.047-0.153c0.392-1.224,0.153-2.534-0.564-3.509c0.392-3.634,1.473-10.863,4.055-19.001
			c1.511-4.743,3.347-9.17,5.422-13.139c0.746-1.119,7.602-10.978,24.355-27.646c18.044-17.949,24.729-27.75,29.787-43.643
			c3.414-10.806,2.668-22.596-1.999-31.566c-4.198-8.071-11.207-13.684-20.808-16.706c-9.075-2.917-18.246-2.199-26.498,2.046
			c-9.285,4.771-17.031,14.028-20.244,24.136c-5.04,15.912-5.23,27.77-0.861,52.842c4.313,24.566,3.94,36.615,3.959,36.644
			c-0.019,0.067-0.449,6.149-3.213,14.841c-1.712,5.422-4.045,10.643-6.761,15.634c-6.77-1.845-14.258-0.507-20.024,4.361
			c-9.562,7.927-10.088,22.3-2.17,31.843l6.56,6.56l-2.897,9.132c-1.664,5.202,0.727,10.614,5.327,12.087
			c4.571,1.454,9.658-1.597,11.322-6.79l0.163-0.526l41.616,41.597c4.217,4.495,10.031,7.536,16.562,7.536
			c4.858,0,9.343-1.587,12.996-4.122l40.898-22.491V337.54l-62.529,191.106c-4.59,16.61,5.307,33.688,22.061,38.174
			c16.601,4.446,33.708-5.461,38.135-22.1l54.649-164.915l55.635,165.317c4.446,16.734,21.554,26.526,38.154,22.061
			c16.581-4.476,26.517-21.583,22.022-38.184L374.764,340.867z M183.448,93.887c4.131,1.282,7.698,2.008,10.48,2.419
			c-10.662,11.188-16.008,18.312-17.777,20.846l-2.037-0.641c0-3.127-0.239-12.154-2.572-27.712
			C174.326,90.464,178.16,92.233,183.448,93.887z"/>
		<path d="M270.237,49.374c3.921,7.229,12.977,9.916,20.206,5.986c2.964-1.616,5.861-6.636,5.861-6.636
			c-0.019-0.038,16.945-3.041,24.356-4.819c1.453-0.354,3.27-1.444,3.738-2.592c0.259-0.641,0.488-1.396,0.526-2.189
			c0.058-0.995-0.976-2.572-1.827-2.85c-0.487-0.163-1.08-0.277-1.797-0.268c-1.014,0.01-1.177-0.564-0.708-1.711
			c0.277-0.641,0.487-1.396,0.526-2.19c0.057-0.995-0.976-2.553-1.827-2.85c-0.487-0.163-1.062-0.277-1.798-0.268
			c-1.004,0.009-1.176-0.555-0.688-1.712c0.259-0.641,0.469-1.396,0.526-2.18c0.058-1.004-0.994-2.572-1.846-2.859
			c-0.469-0.162-1.062-0.277-1.798-0.268c-1.023,0.019-1.186-0.545-0.707-1.702c0.258-0.641,0.487-1.396,0.525-2.18
			c0.058-0.995-0.994-2.563-1.846-2.85c-0.469-0.172-1.062-0.287-1.798-0.277c-1.014,0.009-1.176-0.545-0.688-1.702
			c0.259-0.65,0.488-1.396,0.526-2.19c0.058-0.994-0.994-2.562-1.846-2.85c-0.469-0.172-1.062-0.287-1.798-0.268
			c-1.014,0.01-2.706,1.042-3.825,2.056l-17.709,16.993l0.038,0.048c0,0-5.862,0.794-8.329,2.123
			C268.985,33.099,266.317,42.145,270.237,49.374z M313.708,36.704c0.621-0.182,1.271,0.115,1.549,0.641
			c0.058,0.105,0.096,0.191,0.115,0.287c0.21,0.717-0.221,1.463-0.938,1.673l-18.924,5.259c-0.708,0.21-1.454-0.22-1.664-0.937
			c-0.191-0.727,0.22-1.473,0.956-1.683L313.708,36.704z M308.181,27.141c0.65-0.354,1.473-0.115,1.826,0.555
			c0.354,0.65,0.115,1.482-0.545,1.826l-16.811,9.123c-0.65,0.364-1.473,0.115-1.826-0.545c-0.354-0.641-0.115-1.473,0.545-1.836
			L308.181,27.141z M287.957,30.65l14.717-12.995c0.555-0.507,1.415-0.44,1.902,0.115c0.077,0.086,0.153,0.163,0.191,0.249
			c0.297,0.555,0.182,1.233-0.296,1.673l-14.698,12.986c-0.563,0.488-1.415,0.449-1.922-0.134
			C287.364,31.989,287.412,31.129,287.957,30.65z"/>
	</g>
</g>
</svg>