<?xml version="1.0" standalone="no"?>
<!DOCTYPE svg PUBLIC "-//W3C//DTD SVG 20010904//EN"
 "http://www.w3.org/TR/2001/REC-SVG-20010904/DTD/svg10.dtd">
<svg version="1.0" xmlns="http://www.w3.org/2000/svg"
 width="225.000000pt" height="225.000000pt" viewBox="0 0 225.000000 225.000000"
 preserveAspectRatio="xMidYMid meet">

<g transform="translate(0.000000,225.000000) scale(0.100000,-0.100000)"
fill="#000000" stroke="none">
<path d="M1505 1945 c-351 -100 -595 -499 -471 -770 l27 -59 -163 -163 c-123
-123 -169 -163 -188 -163 -19 0 -72 -48 -227 -203 -217 -216 -227 -233 -183
-277 45 -45 61 -34 274 179 135 135 200 207 204 227 5 20 59 80 172 191 l165
162 25 -19 c97 -70 289 -66 438 9 193 98 339 281 380 480 36 175 -33 329 -177
394 -59 26 -203 33 -276 12z m92 -72 c-16 -16 -18 -16 -34 0 -16 16 -15 17 17
17 32 0 33 -1 17 -17z m132 6 c21 -6 48 -19 62 -30 l24 -18 -52 -53 -53 -53
-55 55 -55 54 33 28 c36 31 45 32 96 17z m-194 -29 c19 -21 18 -22 -28 -68
l-47 -47 -42 42 -42 42 55 25 c66 31 81 32 104 6z m102 -197 l-47 -48 -55 55
-55 54 47 48 48 48 55 -55 55 -55 -48 -47z m-253 13 l-49 -45 -45 45 -45 45
50 45 50 44 44 -44 44 -45 -49 -45z m485 96 c11 -21 22 -53 26 -72 5 -30 2
-39 -24 -64 -16 -15 -33 -27 -38 -25 -5 2 -28 26 -53 52 l-43 48 48 49 c27 28
53 50 57 50 4 0 16 -17 27 -38z m-349 -227 c-24 -25 -48 -45 -54 -45 -5 0 -31
24 -57 53 l-47 52 46 48 47 47 54 -55 55 -55 -44 -45z m-252 102 l42 -43 -50
-49 c-27 -27 -51 -47 -52 -44 -2 2 -18 21 -37 41 l-34 37 38 50 c20 28 40 51
44 51 4 0 26 -19 49 -43z m497 -17 l49 -50 -44 -45 c-24 -25 -49 -45 -55 -45
-5 0 -31 23 -57 52 l-46 53 46 42 c26 23 49 42 52 43 3 0 28 -22 55 -50z m131
-55 c-6 -22 -9 -25 -22 -14 -13 10 -12 14 2 30 21 24 28 18 20 -16z m-501
-146 c-26 -24 -50 -45 -54 -47 -4 -1 -29 20 -56 48 l-49 50 49 50 50 50 53
-54 54 -53 -47 -44z m250 81 l50 -50 -50 -50 -50 -50 -55 55 -54 55 44 45 c24
25 49 45 55 45 6 0 33 -23 60 -50z m-505 -74 c-61 -62 -77 -55 -54 25 28 94
30 96 70 58 l34 -33 -50 -50z m724 95 c16 -17 16 -21 0 -62 -10 -24 -24 -54
-32 -67 l-15 -23 -39 38 -38 37 47 48 c26 26 50 48 54 48 3 0 14 -8 23 -19z
m-594 -226 l-50 -50 -52 52 -53 53 50 50 49 50 53 -52 53 -53 -50 -50z m255
85 l49 -50 -44 -45 c-24 -25 -49 -45 -55 -45 -6 0 -33 22 -60 50 l-49 50 44
45 c24 25 49 45 55 45 6 0 33 -22 60 -50z m239 1 l39 -40 -31 -39 c-57 -71
-57 -71 -110 -18 l-47 47 50 44 c28 25 52 45 55 45 3 0 23 -18 44 -39z m-601
-193 c-35 -36 -37 -37 -50 -18 -39 55 -53 126 -31 148 10 10 24 1 65 -40 l53
-52 -37 -38z m232 72 l49 -50 -47 -47 -47 -48 -52 52 -52 53 44 45 c24 25 47
45 50 45 3 0 28 -23 55 -50z m243 -3 c23 -23 42 -45 42 -48 0 -4 -24 -22 -54
-42 l-53 -35 -39 39 -38 39 44 45 c24 25 47 45 50 45 3 0 25 -19 48 -43z
m-364 -116 c27 -27 45 -54 42 -60 -12 -19 -60 -12 -115 15 l-52 27 32 33 c18
19 36 34 39 34 3 0 27 -22 54 -49z m235 5 l33 -34 -71 -23 c-55 -18 -74 -20
-83 -11 -9 9 -2 22 32 57 24 25 47 45 50 45 3 0 21 -15 39 -34z"/>
<path d="M1600 918 c-35 -24 -66 -88 -56 -115 4 -10 35 -13 122 -13 l117 0 -6
42 c-12 88 -106 134 -177 86z"/>
<path d="M1547 763 c-4 -3 -7 -18 -7 -33 0 -15 -31 -95 -70 -179 -38 -83 -70
-156 -70 -161 0 -6 97 -10 265 -10 179 0 265 3 265 11 0 5 -34 84 -75 174 -41
91 -75 174 -75 185 0 19 -6 20 -113 20 -63 0 -117 -3 -120 -7z m101 -110 l-3
-48 -57 -3 c-32 -2 -58 -1 -58 2 0 3 10 26 22 51 20 42 25 45 61 45 l38 0 -3
-47z m130 2 c12 -25 22 -48 22 -50 0 -3 -27 -5 -60 -5 l-60 0 0 50 0 50 38 0
c35 0 40 -3 60 -45z m-128 -100 c0 -12 -15 -15 -75 -15 -62 0 -73 2 -69 15 5
11 23 15 75 15 55 0 69 -3 69 -15z m174 0 c4 -13 -7 -15 -69 -15 -60 0 -75 3
-75 15 0 12 14 15 69 15 52 0 70 -4 75 -15z m-179 -95 l0 -45 -97 -3 c-65 -2
-98 1 -98 8 0 6 9 29 20 51 l21 40 77 -3 77 -3 0 -45z m222 0 l21 -50 -104 0
-104 0 0 50 0 50 83 0 83 0 21 -50z"/>
</g>
</svg>
